<?xml version="1.0" encoding="utf-8" standalone="no"?>
<!DOCTYPE svg PUBLIC "-//W3C//DTD SVG 1.1//EN"
  "http://www.w3.org/Graphics/SVG/1.1/DTD/svg11.dtd">
<svg xmlns:xlink="http://www.w3.org/1999/xlink" width="460.8pt" height="345.6pt" viewBox="0 0 460.8 345.6" xmlns="http://www.w3.org/2000/svg" version="1.1">
 <metadata>
  <rdf:RDF xmlns:dc="http://purl.org/dc/elements/1.1/" xmlns:cc="http://creativecommons.org/ns#" xmlns:rdf="http://www.w3.org/1999/02/22-rdf-syntax-ns#">
   <cc:Work>
    <dc:type rdf:resource="http://purl.org/dc/dcmitype/StillImage"/>
    <dc:date>2024-10-19T22:01:37.923570</dc:date>
    <dc:format>image/svg+xml</dc:format>
    <dc:creator>
     <cc:Agent>
      <dc:title>Matplotlib v3.9.2, https://matplotlib.org/</dc:title>
     </cc:Agent>
    </dc:creator>
   </cc:Work>
  </rdf:RDF>
 </metadata>
 <defs>
  <style type="text/css">*{stroke-linejoin: round; stroke-linecap: butt}</style>
 </defs>
 <g id="figure_1">
  <g id="patch_1">
   <path d="M 0 345.6 
L 460.8 345.6 
L 460.8 0 
L 0 0 
z
" style="fill: #ffffff"/>
  </g>
  <g id="axes_1">
   <g id="patch_2">
    <path d="M 57.6 307.584 
L 414.72 307.584 
L 414.72 41.472 
L 57.6 41.472 
z
" style="fill: #ffffff"/>
   </g>
   <g id="matplotlib.axis_1">
    <g id="xtick_1">
     <g id="line2d_1">
      <path d="M 72.193058 307.584 
L 72.193058 41.472 
" clip-path="url(#pd86b0ce23b)" style="fill: none; stroke-dasharray: 2.96,1.28; stroke-dashoffset: 0; stroke: #b0b0b0; stroke-width: 0.8"/>
     </g>
     <g id="line2d_2">
      <defs>
       <path id="mcea5da5fd3" d="M 0 0 
L 0 3.5 
" style="stroke: #000000; stroke-width: 0.8"/>
      </defs>
      <g>
       <use xlink:href="#mcea5da5fd3" x="72.193058" y="307.584" style="stroke: #000000; stroke-width: 0.8"/>
      </g>
     </g>
     <g id="text_1">
      <!-- 0 -->
      <g transform="translate(67.744308 326.0365) scale(0.16 -0.16)">
       <defs>
        <path id="Arial-BoldMT-30" d="M 1756 4600 
Q 2422 4600 2797 4125 
Q 3244 3563 3244 2259 
Q 3244 959 2794 391 
Q 2422 -78 1756 -78 
Q 1088 -78 678 436 
Q 269 950 269 2269 
Q 269 3563 719 4131 
Q 1091 4600 1756 4600 
z
M 1756 3872 
Q 1597 3872 1472 3770 
Q 1347 3669 1278 3406 
Q 1188 3066 1188 2259 
Q 1188 1453 1269 1151 
Q 1350 850 1473 750 
Q 1597 650 1756 650 
Q 1916 650 2041 751 
Q 2166 853 2234 1116 
Q 2325 1453 2325 2259 
Q 2325 3066 2244 3367 
Q 2163 3669 2039 3770 
Q 1916 3872 1756 3872 
z
" transform="scale(0.015625)"/>
       </defs>
       <use xlink:href="#Arial-BoldMT-30"/>
      </g>
     </g>
    </g>
    <g id="xtick_2">
     <g id="line2d_3">
      <path d="M 112.979835 307.584 
L 112.979835 41.472 
" clip-path="url(#pd86b0ce23b)" style="fill: none; stroke-dasharray: 2.96,1.28; stroke-dashoffset: 0; stroke: #b0b0b0; stroke-width: 0.8"/>
     </g>
     <g id="line2d_4">
      <g>
       <use xlink:href="#mcea5da5fd3" x="112.979835" y="307.584" style="stroke: #000000; stroke-width: 0.8"/>
      </g>
     </g>
     <g id="text_2">
      <!-- 1 -->
      <g transform="translate(108.531085 326.0365) scale(0.16 -0.16)">
       <defs>
        <path id="Arial-BoldMT-31" d="M 2519 0 
L 1641 0 
L 1641 3309 
Q 1159 2859 506 2644 
L 506 3441 
Q 850 3553 1253 3867 
Q 1656 4181 1806 4600 
L 2519 4600 
L 2519 0 
z
" transform="scale(0.015625)"/>
       </defs>
       <use xlink:href="#Arial-BoldMT-31"/>
      </g>
     </g>
    </g>
    <g id="xtick_3">
     <g id="line2d_5">
      <path d="M 153.766612 307.584 
L 153.766612 41.472 
" clip-path="url(#pd86b0ce23b)" style="fill: none; stroke-dasharray: 2.96,1.28; stroke-dashoffset: 0; stroke: #b0b0b0; stroke-width: 0.8"/>
     </g>
     <g id="line2d_6">
      <g>
       <use xlink:href="#mcea5da5fd3" x="153.766612" y="307.584" style="stroke: #000000; stroke-width: 0.8"/>
      </g>
     </g>
     <g id="text_3">
      <!-- 2 -->
      <g transform="translate(149.317862 326.0365) scale(0.16 -0.16)">
       <defs>
        <path id="Arial-BoldMT-32" d="M 3238 816 
L 3238 0 
L 159 0 
Q 209 463 459 877 
Q 709 1291 1447 1975 
Q 2041 2528 2175 2725 
Q 2356 2997 2356 3263 
Q 2356 3556 2198 3714 
Q 2041 3872 1763 3872 
Q 1488 3872 1325 3706 
Q 1163 3541 1138 3156 
L 263 3244 
Q 341 3969 753 4284 
Q 1166 4600 1784 4600 
Q 2463 4600 2850 4234 
Q 3238 3869 3238 3325 
Q 3238 3016 3127 2736 
Q 3016 2456 2775 2150 
Q 2616 1947 2200 1565 
Q 1784 1184 1673 1059 
Q 1563 934 1494 816 
L 3238 816 
z
" transform="scale(0.015625)"/>
       </defs>
       <use xlink:href="#Arial-BoldMT-32"/>
      </g>
     </g>
    </g>
    <g id="xtick_4">
     <g id="line2d_7">
      <path d="M 194.553388 307.584 
L 194.553388 41.472 
" clip-path="url(#pd86b0ce23b)" style="fill: none; stroke-dasharray: 2.96,1.28; stroke-dashoffset: 0; stroke: #b0b0b0; stroke-width: 0.8"/>
     </g>
     <g id="line2d_8">
      <g>
       <use xlink:href="#mcea5da5fd3" x="194.553388" y="307.584" style="stroke: #000000; stroke-width: 0.8"/>
      </g>
     </g>
     <g id="text_4">
      <!-- 3 -->
      <g transform="translate(190.104638 326.0365) scale(0.16 -0.16)">
       <defs>
        <path id="Arial-BoldMT-33" d="M 241 1216 
L 1091 1319 
Q 1131 994 1309 822 
Q 1488 650 1741 650 
Q 2013 650 2198 856 
Q 2384 1063 2384 1413 
Q 2384 1744 2206 1937 
Q 2028 2131 1772 2131 
Q 1603 2131 1369 2066 
L 1466 2781 
Q 1822 2772 2009 2936 
Q 2197 3100 2197 3372 
Q 2197 3603 2059 3740 
Q 1922 3878 1694 3878 
Q 1469 3878 1309 3722 
Q 1150 3566 1116 3266 
L 306 3403 
Q 391 3819 561 4067 
Q 731 4316 1036 4458 
Q 1341 4600 1719 4600 
Q 2366 4600 2756 4188 
Q 3078 3850 3078 3425 
Q 3078 2822 2419 2463 
Q 2813 2378 3048 2084 
Q 3284 1791 3284 1375 
Q 3284 772 2843 347 
Q 2403 -78 1747 -78 
Q 1125 -78 715 280 
Q 306 638 241 1216 
z
" transform="scale(0.015625)"/>
       </defs>
       <use xlink:href="#Arial-BoldMT-33"/>
      </g>
     </g>
    </g>
    <g id="xtick_5">
     <g id="line2d_9">
      <path d="M 235.340165 307.584 
L 235.340165 41.472 
" clip-path="url(#pd86b0ce23b)" style="fill: none; stroke-dasharray: 2.96,1.28; stroke-dashoffset: 0; stroke: #b0b0b0; stroke-width: 0.8"/>
     </g>
     <g id="line2d_10">
      <g>
       <use xlink:href="#mcea5da5fd3" x="235.340165" y="307.584" style="stroke: #000000; stroke-width: 0.8"/>
      </g>
     </g>
     <g id="text_5">
      <!-- 4 -->
      <g transform="translate(230.891415 326.0365) scale(0.16 -0.16)">
       <defs>
        <path id="Arial-BoldMT-34" d="M 1994 0 
L 1994 922 
L 119 922 
L 119 1691 
L 2106 4600 
L 2844 4600 
L 2844 1694 
L 3413 1694 
L 3413 922 
L 2844 922 
L 2844 0 
L 1994 0 
z
M 1994 1694 
L 1994 3259 
L 941 1694 
L 1994 1694 
z
" transform="scale(0.015625)"/>
       </defs>
       <use xlink:href="#Arial-BoldMT-34"/>
      </g>
     </g>
    </g>
    <g id="xtick_6">
     <g id="line2d_11">
      <path d="M 276.126942 307.584 
L 276.126942 41.472 
" clip-path="url(#pd86b0ce23b)" style="fill: none; stroke-dasharray: 2.96,1.28; stroke-dashoffset: 0; stroke: #b0b0b0; stroke-width: 0.8"/>
     </g>
     <g id="line2d_12">
      <g>
       <use xlink:href="#mcea5da5fd3" x="276.126942" y="307.584" style="stroke: #000000; stroke-width: 0.8"/>
      </g>
     </g>
     <g id="text_6">
      <!-- 5 -->
      <g transform="translate(271.678192 326.0365) scale(0.16 -0.16)">
       <defs>
        <path id="Arial-BoldMT-35" d="M 284 1178 
L 1159 1269 
Q 1197 972 1381 798 
Q 1566 625 1806 625 
Q 2081 625 2272 848 
Q 2463 1072 2463 1522 
Q 2463 1944 2273 2155 
Q 2084 2366 1781 2366 
Q 1403 2366 1103 2031 
L 391 2134 
L 841 4519 
L 3163 4519 
L 3163 3697 
L 1506 3697 
L 1369 2919 
Q 1663 3066 1969 3066 
Q 2553 3066 2959 2641 
Q 3366 2216 3366 1538 
Q 3366 972 3038 528 
Q 2591 -78 1797 -78 
Q 1163 -78 763 262 
Q 363 603 284 1178 
z
" transform="scale(0.015625)"/>
       </defs>
       <use xlink:href="#Arial-BoldMT-35"/>
      </g>
     </g>
    </g>
    <g id="xtick_7">
     <g id="line2d_13">
      <path d="M 316.913719 307.584 
L 316.913719 41.472 
" clip-path="url(#pd86b0ce23b)" style="fill: none; stroke-dasharray: 2.96,1.28; stroke-dashoffset: 0; stroke: #b0b0b0; stroke-width: 0.8"/>
     </g>
     <g id="line2d_14">
      <g>
       <use xlink:href="#mcea5da5fd3" x="316.913719" y="307.584" style="stroke: #000000; stroke-width: 0.8"/>
      </g>
     </g>
     <g id="text_7">
      <!-- 6 -->
      <g transform="translate(312.464969 326.0365) scale(0.16 -0.16)">
       <defs>
        <path id="Arial-BoldMT-36" d="M 3247 3459 
L 2397 3366 
Q 2366 3628 2234 3753 
Q 2103 3878 1894 3878 
Q 1616 3878 1423 3628 
Q 1231 3378 1181 2588 
Q 1509 2975 1997 2975 
Q 2547 2975 2939 2556 
Q 3331 2138 3331 1475 
Q 3331 772 2918 347 
Q 2506 -78 1859 -78 
Q 1166 -78 719 461 
Q 272 1000 272 2228 
Q 272 3488 737 4044 
Q 1203 4600 1947 4600 
Q 2469 4600 2811 4308 
Q 3153 4016 3247 3459 
z
M 1256 1544 
Q 1256 1116 1453 883 
Q 1650 650 1903 650 
Q 2147 650 2309 840 
Q 2472 1031 2472 1466 
Q 2472 1913 2297 2120 
Q 2122 2328 1859 2328 
Q 1606 2328 1431 2129 
Q 1256 1931 1256 1544 
z
" transform="scale(0.015625)"/>
       </defs>
       <use xlink:href="#Arial-BoldMT-36"/>
      </g>
     </g>
    </g>
    <g id="xtick_8">
     <g id="line2d_15">
      <path d="M 357.700496 307.584 
L 357.700496 41.472 
" clip-path="url(#pd86b0ce23b)" style="fill: none; stroke-dasharray: 2.96,1.28; stroke-dashoffset: 0; stroke: #b0b0b0; stroke-width: 0.8"/>
     </g>
     <g id="line2d_16">
      <g>
       <use xlink:href="#mcea5da5fd3" x="357.700496" y="307.584" style="stroke: #000000; stroke-width: 0.8"/>
      </g>
     </g>
     <g id="text_8">
      <!-- 7 -->
      <g transform="translate(353.251746 326.0365) scale(0.16 -0.16)">
       <defs>
        <path id="Arial-BoldMT-37" d="M 272 3703 
L 272 4519 
L 3275 4519 
L 3275 3881 
Q 2903 3516 2518 2831 
Q 2134 2147 1932 1376 
Q 1731 606 1734 0 
L 888 0 
Q 909 950 1279 1937 
Q 1650 2925 2269 3703 
L 272 3703 
z
" transform="scale(0.015625)"/>
       </defs>
       <use xlink:href="#Arial-BoldMT-37"/>
      </g>
     </g>
    </g>
    <g id="xtick_9">
     <g id="line2d_17">
      <path d="M 398.487273 307.584 
L 398.487273 41.472 
" clip-path="url(#pd86b0ce23b)" style="fill: none; stroke-dasharray: 2.96,1.28; stroke-dashoffset: 0; stroke: #b0b0b0; stroke-width: 0.8"/>
     </g>
     <g id="line2d_18">
      <g>
       <use xlink:href="#mcea5da5fd3" x="398.487273" y="307.584" style="stroke: #000000; stroke-width: 0.8"/>
      </g>
     </g>
     <g id="text_9">
      <!-- 8 -->
      <g transform="translate(394.038523 326.0365) scale(0.16 -0.16)">
       <defs>
        <path id="Arial-BoldMT-38" d="M 1025 2472 
Q 684 2616 529 2867 
Q 375 3119 375 3419 
Q 375 3931 733 4265 
Q 1091 4600 1750 4600 
Q 2403 4600 2764 4265 
Q 3125 3931 3125 3419 
Q 3125 3100 2959 2851 
Q 2794 2603 2494 2472 
Q 2875 2319 3073 2025 
Q 3272 1731 3272 1347 
Q 3272 713 2867 316 
Q 2463 -81 1791 -81 
Q 1166 -81 750 247 
Q 259 634 259 1309 
Q 259 1681 443 1992 
Q 628 2303 1025 2472 
z
M 1206 3356 
Q 1206 3094 1354 2947 
Q 1503 2800 1750 2800 
Q 2000 2800 2150 2948 
Q 2300 3097 2300 3359 
Q 2300 3606 2151 3754 
Q 2003 3903 1759 3903 
Q 1506 3903 1356 3753 
Q 1206 3603 1206 3356 
z
M 1125 1394 
Q 1125 1031 1311 828 
Q 1497 625 1775 625 
Q 2047 625 2225 820 
Q 2403 1016 2403 1384 
Q 2403 1706 2222 1901 
Q 2041 2097 1763 2097 
Q 1441 2097 1283 1875 
Q 1125 1653 1125 1394 
z
" transform="scale(0.015625)"/>
       </defs>
       <use xlink:href="#Arial-BoldMT-38"/>
      </g>
     </g>
    </g>
    <g id="text_10">
     <!-- Frequency (GHz) -->
     <g transform="translate(172.15625 344.8415) scale(0.16 -0.16)">
      <defs>
       <path id="Arial-BoldMT-46" d="M 472 0 
L 472 4581 
L 3613 4581 
L 3613 3806 
L 1397 3806 
L 1397 2722 
L 3309 2722 
L 3309 1947 
L 1397 1947 
L 1397 0 
L 472 0 
z
" transform="scale(0.015625)"/>
       <path id="Arial-BoldMT-72" d="M 1300 0 
L 422 0 
L 422 3319 
L 1238 3319 
L 1238 2847 
Q 1447 3181 1614 3287 
Q 1781 3394 1994 3394 
Q 2294 3394 2572 3228 
L 2300 2463 
Q 2078 2606 1888 2606 
Q 1703 2606 1575 2504 
Q 1447 2403 1373 2137 
Q 1300 1872 1300 1025 
L 1300 0 
z
" transform="scale(0.015625)"/>
       <path id="Arial-BoldMT-65" d="M 2381 1056 
L 3256 909 
Q 3088 428 2723 176 
Q 2359 -75 1813 -75 
Q 947 -75 531 491 
Q 203 944 203 1634 
Q 203 2459 634 2926 
Q 1066 3394 1725 3394 
Q 2466 3394 2894 2905 
Q 3322 2416 3303 1406 
L 1103 1406 
Q 1113 1016 1316 798 
Q 1519 581 1822 581 
Q 2028 581 2168 693 
Q 2309 806 2381 1056 
z
M 2431 1944 
Q 2422 2325 2234 2523 
Q 2047 2722 1778 2722 
Q 1491 2722 1303 2513 
Q 1116 2303 1119 1944 
L 2431 1944 
z
" transform="scale(0.015625)"/>
       <path id="Arial-BoldMT-71" d="M 2628 -1263 
L 2628 406 
Q 2456 184 2200 54 
Q 1944 -75 1647 -75 
Q 1081 -75 716 350 
Q 284 847 284 1697 
Q 284 2497 689 2945 
Q 1094 3394 1694 3394 
Q 2025 3394 2267 3253 
Q 2509 3113 2697 2828 
L 2697 3319 
L 3506 3319 
L 3506 -1263 
L 2628 -1263 
z
M 2656 1700 
Q 2656 2209 2448 2457 
Q 2241 2706 1928 2706 
Q 1609 2706 1395 2453 
Q 1181 2200 1181 1650 
Q 1181 1103 1387 861 
Q 1594 619 1897 619 
Q 2200 619 2428 891 
Q 2656 1163 2656 1700 
z
" transform="scale(0.015625)"/>
       <path id="Arial-BoldMT-75" d="M 2644 0 
L 2644 497 
Q 2463 231 2167 78 
Q 1872 -75 1544 -75 
Q 1209 -75 943 72 
Q 678 219 559 484 
Q 441 750 441 1219 
L 441 3319 
L 1319 3319 
L 1319 1794 
Q 1319 1094 1367 936 
Q 1416 778 1544 686 
Q 1672 594 1869 594 
Q 2094 594 2272 717 
Q 2450 841 2515 1023 
Q 2581 1206 2581 1919 
L 2581 3319 
L 3459 3319 
L 3459 0 
L 2644 0 
z
" transform="scale(0.015625)"/>
       <path id="Arial-BoldMT-6e" d="M 3478 0 
L 2600 0 
L 2600 1694 
Q 2600 2231 2544 2389 
Q 2488 2547 2361 2634 
Q 2234 2722 2056 2722 
Q 1828 2722 1647 2597 
Q 1466 2472 1398 2265 
Q 1331 2059 1331 1503 
L 1331 0 
L 453 0 
L 453 3319 
L 1269 3319 
L 1269 2831 
Q 1703 3394 2363 3394 
Q 2653 3394 2893 3289 
Q 3134 3184 3257 3021 
Q 3381 2859 3429 2653 
Q 3478 2447 3478 2063 
L 3478 0 
z
" transform="scale(0.015625)"/>
       <path id="Arial-BoldMT-63" d="M 3353 2338 
L 2488 2181 
Q 2444 2441 2289 2572 
Q 2134 2703 1888 2703 
Q 1559 2703 1364 2476 
Q 1169 2250 1169 1719 
Q 1169 1128 1367 884 
Q 1566 641 1900 641 
Q 2150 641 2309 783 
Q 2469 925 2534 1272 
L 3397 1125 
Q 3263 531 2881 228 
Q 2500 -75 1859 -75 
Q 1131 -75 698 384 
Q 266 844 266 1656 
Q 266 2478 700 2936 
Q 1134 3394 1875 3394 
Q 2481 3394 2839 3133 
Q 3197 2872 3353 2338 
z
" transform="scale(0.015625)"/>
       <path id="Arial-BoldMT-79" d="M 44 3319 
L 978 3319 
L 1772 963 
L 2547 3319 
L 3456 3319 
L 2284 125 
L 2075 -453 
Q 1959 -744 1854 -897 
Q 1750 -1050 1614 -1145 
Q 1478 -1241 1279 -1294 
Q 1081 -1347 831 -1347 
Q 578 -1347 334 -1294 
L 256 -606 
Q 463 -647 628 -647 
Q 934 -647 1081 -467 
Q 1228 -288 1306 -9 
L 44 3319 
z
" transform="scale(0.015625)"/>
       <path id="Arial-BoldMT-20" transform="scale(0.015625)"/>
       <path id="Arial-BoldMT-28" d="M 1916 -1347 
L 1313 -1347 
Q 834 -625 584 153 
Q 334 931 334 1659 
Q 334 2563 644 3369 
Q 913 4069 1325 4659 
L 1925 4659 
Q 1497 3713 1336 3048 
Q 1175 2384 1175 1641 
Q 1175 1128 1270 590 
Q 1366 53 1531 -431 
Q 1641 -750 1916 -1347 
z
" transform="scale(0.015625)"/>
       <path id="Arial-BoldMT-47" d="M 2597 1684 
L 2597 2456 
L 4591 2456 
L 4591 631 
Q 4300 350 3748 136 
Q 3197 -78 2631 -78 
Q 1913 -78 1378 223 
Q 844 525 575 1086 
Q 306 1647 306 2306 
Q 306 3022 606 3578 
Q 906 4134 1484 4431 
Q 1925 4659 2581 4659 
Q 3434 4659 3914 4301 
Q 4394 3944 4531 3313 
L 3613 3141 
Q 3516 3478 3248 3673 
Q 2981 3869 2581 3869 
Q 1975 3869 1617 3484 
Q 1259 3100 1259 2344 
Q 1259 1528 1621 1120 
Q 1984 713 2572 713 
Q 2863 713 3155 827 
Q 3447 941 3656 1103 
L 3656 1684 
L 2597 1684 
z
" transform="scale(0.015625)"/>
       <path id="Arial-BoldMT-48" d="M 469 0 
L 469 4581 
L 1394 4581 
L 1394 2778 
L 3206 2778 
L 3206 4581 
L 4131 4581 
L 4131 0 
L 3206 0 
L 3206 2003 
L 1394 2003 
L 1394 0 
L 469 0 
z
" transform="scale(0.015625)"/>
       <path id="Arial-BoldMT-7a" d="M 106 0 
L 106 684 
L 1350 2113 
Q 1656 2463 1803 2609 
Q 1650 2600 1400 2597 
L 228 2591 
L 228 3319 
L 2972 3319 
L 2972 2697 
L 1703 1234 
L 1256 750 
Q 1622 772 1709 772 
L 3069 772 
L 3069 0 
L 106 0 
z
" transform="scale(0.015625)"/>
       <path id="Arial-BoldMT-29" d="M 216 -1347 
Q 475 -791 581 -494 
Q 688 -197 778 190 
Q 869 578 912 926 
Q 956 1275 956 1641 
Q 956 2384 797 3048 
Q 638 3713 209 4659 
L 806 4659 
Q 1278 3988 1539 3234 
Q 1800 2481 1800 1706 
Q 1800 1053 1594 306 
Q 1359 -531 822 -1347 
L 216 -1347 
z
" transform="scale(0.015625)"/>
      </defs>
      <use xlink:href="#Arial-BoldMT-46"/>
      <use xlink:href="#Arial-BoldMT-72" x="61.083984"/>
      <use xlink:href="#Arial-BoldMT-65" x="100"/>
      <use xlink:href="#Arial-BoldMT-71" x="155.615234"/>
      <use xlink:href="#Arial-BoldMT-75" x="216.699219"/>
      <use xlink:href="#Arial-BoldMT-65" x="277.783203"/>
      <use xlink:href="#Arial-BoldMT-6e" x="333.398438"/>
      <use xlink:href="#Arial-BoldMT-63" x="394.482422"/>
      <use xlink:href="#Arial-BoldMT-79" x="450.097656"/>
      <use xlink:href="#Arial-BoldMT-20" x="505.712891"/>
      <use xlink:href="#Arial-BoldMT-28" x="533.496094"/>
      <use xlink:href="#Arial-BoldMT-47" x="566.796875"/>
      <use xlink:href="#Arial-BoldMT-48" x="644.580078"/>
      <use xlink:href="#Arial-BoldMT-7a" x="716.796875"/>
      <use xlink:href="#Arial-BoldMT-29" x="766.796875"/>
     </g>
    </g>
   </g>
   <g id="matplotlib.axis_2">
    <g id="ytick_1">
     <g id="line2d_19">
      <path d="M 57.6 298.864797 
L 414.72 298.864797 
" clip-path="url(#pd86b0ce23b)" style="fill: none; stroke-dasharray: 2.96,1.28; stroke-dashoffset: 0; stroke: #b0b0b0; stroke-width: 0.8"/>
     </g>
     <g id="line2d_20">
      <defs>
       <path id="m66ce302103" d="M 0 0 
L -3.5 0 
" style="stroke: #000000; stroke-width: 0.8"/>
      </defs>
      <g>
       <use xlink:href="#m66ce302103" x="57.6" y="298.864797" style="stroke: #000000; stroke-width: 0.8"/>
      </g>
     </g>
     <g id="text_11">
      <!-- −35 -->
      <g transform="translate(23.46 304.591047) scale(0.16 -0.16)">
       <defs>
        <path id="Arial-BoldMT-2212" d="M 266 1850 
L 266 2672 
L 3469 2672 
L 3469 1850 
L 266 1850 
z
" transform="scale(0.015625)"/>
       </defs>
       <use xlink:href="#Arial-BoldMT-2212"/>
       <use xlink:href="#Arial-BoldMT-33" x="58.398438"/>
       <use xlink:href="#Arial-BoldMT-35" x="114.013672"/>
      </g>
     </g>
    </g>
    <g id="ytick_2">
     <g id="line2d_21">
      <path d="M 57.6 263.260216 
L 414.72 263.260216 
" clip-path="url(#pd86b0ce23b)" style="fill: none; stroke-dasharray: 2.96,1.28; stroke-dashoffset: 0; stroke: #b0b0b0; stroke-width: 0.8"/>
     </g>
     <g id="line2d_22">
      <g>
       <use xlink:href="#m66ce302103" x="57.6" y="263.260216" style="stroke: #000000; stroke-width: 0.8"/>
      </g>
     </g>
     <g id="text_12">
      <!-- −30 -->
      <g transform="translate(23.46 268.986466) scale(0.16 -0.16)">
       <use xlink:href="#Arial-BoldMT-2212"/>
       <use xlink:href="#Arial-BoldMT-33" x="58.398438"/>
       <use xlink:href="#Arial-BoldMT-30" x="114.013672"/>
      </g>
     </g>
    </g>
    <g id="ytick_3">
     <g id="line2d_23">
      <path d="M 57.6 227.655634 
L 414.72 227.655634 
" clip-path="url(#pd86b0ce23b)" style="fill: none; stroke-dasharray: 2.96,1.28; stroke-dashoffset: 0; stroke: #b0b0b0; stroke-width: 0.8"/>
     </g>
     <g id="line2d_24">
      <g>
       <use xlink:href="#m66ce302103" x="57.6" y="227.655634" style="stroke: #000000; stroke-width: 0.8"/>
      </g>
     </g>
     <g id="text_13">
      <!-- −25 -->
      <g transform="translate(23.46 233.381884) scale(0.16 -0.16)">
       <use xlink:href="#Arial-BoldMT-2212"/>
       <use xlink:href="#Arial-BoldMT-32" x="58.398438"/>
       <use xlink:href="#Arial-BoldMT-35" x="114.013672"/>
      </g>
     </g>
    </g>
    <g id="ytick_4">
     <g id="line2d_25">
      <path d="M 57.6 192.051053 
L 414.72 192.051053 
" clip-path="url(#pd86b0ce23b)" style="fill: none; stroke-dasharray: 2.96,1.28; stroke-dashoffset: 0; stroke: #b0b0b0; stroke-width: 0.8"/>
     </g>
     <g id="line2d_26">
      <g>
       <use xlink:href="#m66ce302103" x="57.6" y="192.051053" style="stroke: #000000; stroke-width: 0.8"/>
      </g>
     </g>
     <g id="text_14">
      <!-- −20 -->
      <g transform="translate(23.46 197.777303) scale(0.16 -0.16)">
       <use xlink:href="#Arial-BoldMT-2212"/>
       <use xlink:href="#Arial-BoldMT-32" x="58.398438"/>
       <use xlink:href="#Arial-BoldMT-30" x="114.013672"/>
      </g>
     </g>
    </g>
    <g id="ytick_5">
     <g id="line2d_27">
      <path d="M 57.6 156.446472 
L 414.72 156.446472 
" clip-path="url(#pd86b0ce23b)" style="fill: none; stroke-dasharray: 2.96,1.28; stroke-dashoffset: 0; stroke: #b0b0b0; stroke-width: 0.8"/>
     </g>
     <g id="line2d_28">
      <g>
       <use xlink:href="#m66ce302103" x="57.6" y="156.446472" style="stroke: #000000; stroke-width: 0.8"/>
      </g>
     </g>
     <g id="text_15">
      <!-- −15 -->
      <g transform="translate(23.46 162.172722) scale(0.16 -0.16)">
       <use xlink:href="#Arial-BoldMT-2212"/>
       <use xlink:href="#Arial-BoldMT-31" x="58.398438"/>
       <use xlink:href="#Arial-BoldMT-35" x="114.013672"/>
      </g>
     </g>
    </g>
    <g id="ytick_6">
     <g id="line2d_29">
      <path d="M 57.6 120.84189 
L 414.72 120.84189 
" clip-path="url(#pd86b0ce23b)" style="fill: none; stroke-dasharray: 2.96,1.28; stroke-dashoffset: 0; stroke: #b0b0b0; stroke-width: 0.8"/>
     </g>
     <g id="line2d_30">
      <g>
       <use xlink:href="#m66ce302103" x="57.6" y="120.84189" style="stroke: #000000; stroke-width: 0.8"/>
      </g>
     </g>
     <g id="text_16">
      <!-- −10 -->
      <g transform="translate(23.46 126.56814) scale(0.16 -0.16)">
       <use xlink:href="#Arial-BoldMT-2212"/>
       <use xlink:href="#Arial-BoldMT-31" x="58.398438"/>
       <use xlink:href="#Arial-BoldMT-30" x="114.013672"/>
      </g>
     </g>
    </g>
    <g id="ytick_7">
     <g id="line2d_31">
      <path d="M 57.6 85.237309 
L 414.72 85.237309 
" clip-path="url(#pd86b0ce23b)" style="fill: none; stroke-dasharray: 2.96,1.28; stroke-dashoffset: 0; stroke: #b0b0b0; stroke-width: 0.8"/>
     </g>
     <g id="line2d_32">
      <g>
       <use xlink:href="#m66ce302103" x="57.6" y="85.237309" style="stroke: #000000; stroke-width: 0.8"/>
      </g>
     </g>
     <g id="text_17">
      <!-- −5 -->
      <g transform="translate(32.3575 90.963559) scale(0.16 -0.16)">
       <use xlink:href="#Arial-BoldMT-2212"/>
       <use xlink:href="#Arial-BoldMT-35" x="58.398438"/>
      </g>
     </g>
    </g>
    <g id="ytick_8">
     <g id="line2d_33">
      <path d="M 57.6 49.632728 
L 414.72 49.632728 
" clip-path="url(#pd86b0ce23b)" style="fill: none; stroke-dasharray: 2.96,1.28; stroke-dashoffset: 0; stroke: #b0b0b0; stroke-width: 0.8"/>
     </g>
     <g id="line2d_34">
      <g>
       <use xlink:href="#m66ce302103" x="57.6" y="49.632728" style="stroke: #000000; stroke-width: 0.8"/>
      </g>
     </g>
     <g id="text_18">
      <!-- 0 -->
      <g transform="translate(41.7025 55.358978) scale(0.16 -0.16)">
       <use xlink:href="#Arial-BoldMT-30"/>
      </g>
     </g>
    </g>
    <g id="text_19">
     <!-- Channel Response (dB) -->
     <g transform="translate(16.0925 264.75175) rotate(-90) scale(0.16 -0.16)">
      <defs>
       <path id="Arial-BoldMT-43" d="M 3397 1684 
L 4294 1400 
Q 4088 650 3608 286 
Q 3128 -78 2391 -78 
Q 1478 -78 890 545 
Q 303 1169 303 2250 
Q 303 3394 893 4026 
Q 1484 4659 2447 4659 
Q 3288 4659 3813 4163 
Q 4125 3869 4281 3319 
L 3366 3100 
Q 3284 3456 3026 3662 
Q 2769 3869 2400 3869 
Q 1891 3869 1573 3503 
Q 1256 3138 1256 2319 
Q 1256 1450 1568 1081 
Q 1881 713 2381 713 
Q 2750 713 3015 947 
Q 3281 1181 3397 1684 
z
" transform="scale(0.015625)"/>
       <path id="Arial-BoldMT-68" d="M 1334 4581 
L 1334 2897 
Q 1759 3394 2350 3394 
Q 2653 3394 2897 3281 
Q 3141 3169 3264 2994 
Q 3388 2819 3433 2606 
Q 3478 2394 3478 1947 
L 3478 0 
L 2600 0 
L 2600 1753 
Q 2600 2275 2550 2415 
Q 2500 2556 2373 2639 
Q 2247 2722 2056 2722 
Q 1838 2722 1666 2615 
Q 1494 2509 1414 2295 
Q 1334 2081 1334 1663 
L 1334 0 
L 456 0 
L 456 4581 
L 1334 4581 
z
" transform="scale(0.015625)"/>
       <path id="Arial-BoldMT-61" d="M 1116 2306 
L 319 2450 
Q 453 2931 781 3162 
Q 1109 3394 1756 3394 
Q 2344 3394 2631 3255 
Q 2919 3116 3036 2902 
Q 3153 2688 3153 2116 
L 3144 1091 
Q 3144 653 3186 445 
Q 3228 238 3344 0 
L 2475 0 
Q 2441 88 2391 259 
Q 2369 338 2359 363 
Q 2134 144 1878 34 
Q 1622 -75 1331 -75 
Q 819 -75 523 203 
Q 228 481 228 906 
Q 228 1188 362 1408 
Q 497 1628 739 1745 
Q 981 1863 1438 1950 
Q 2053 2066 2291 2166 
L 2291 2253 
Q 2291 2506 2166 2614 
Q 2041 2722 1694 2722 
Q 1459 2722 1328 2630 
Q 1197 2538 1116 2306 
z
M 2291 1594 
Q 2122 1538 1756 1459 
Q 1391 1381 1278 1306 
Q 1106 1184 1106 997 
Q 1106 813 1243 678 
Q 1381 544 1594 544 
Q 1831 544 2047 700 
Q 2206 819 2256 991 
Q 2291 1103 2291 1419 
L 2291 1594 
z
" transform="scale(0.015625)"/>
       <path id="Arial-BoldMT-6c" d="M 459 0 
L 459 4581 
L 1338 4581 
L 1338 0 
L 459 0 
z
" transform="scale(0.015625)"/>
       <path id="Arial-BoldMT-52" d="M 469 0 
L 469 4581 
L 2416 4581 
Q 3150 4581 3483 4457 
Q 3816 4334 4016 4018 
Q 4216 3703 4216 3297 
Q 4216 2781 3912 2445 
Q 3609 2109 3006 2022 
Q 3306 1847 3501 1637 
Q 3697 1428 4028 894 
L 4588 0 
L 3481 0 
L 2813 997 
Q 2456 1531 2325 1670 
Q 2194 1809 2047 1861 
Q 1900 1913 1581 1913 
L 1394 1913 
L 1394 0 
L 469 0 
z
M 1394 2644 
L 2078 2644 
Q 2744 2644 2909 2700 
Q 3075 2756 3169 2893 
Q 3263 3031 3263 3238 
Q 3263 3469 3139 3611 
Q 3016 3753 2791 3791 
Q 2678 3806 2116 3806 
L 1394 3806 
L 1394 2644 
z
" transform="scale(0.015625)"/>
       <path id="Arial-BoldMT-73" d="M 150 947 
L 1031 1081 
Q 1088 825 1259 692 
Q 1431 559 1741 559 
Q 2081 559 2253 684 
Q 2369 772 2369 919 
Q 2369 1019 2306 1084 
Q 2241 1147 2013 1200 
Q 950 1434 666 1628 
Q 272 1897 272 2375 
Q 272 2806 612 3100 
Q 953 3394 1669 3394 
Q 2350 3394 2681 3172 
Q 3013 2950 3138 2516 
L 2309 2363 
Q 2256 2556 2107 2659 
Q 1959 2763 1684 2763 
Q 1338 2763 1188 2666 
Q 1088 2597 1088 2488 
Q 1088 2394 1175 2328 
Q 1294 2241 1995 2081 
Q 2697 1922 2975 1691 
Q 3250 1456 3250 1038 
Q 3250 581 2869 253 
Q 2488 -75 1741 -75 
Q 1063 -75 667 200 
Q 272 475 150 947 
z
" transform="scale(0.015625)"/>
       <path id="Arial-BoldMT-70" d="M 434 3319 
L 1253 3319 
L 1253 2831 
Q 1413 3081 1684 3237 
Q 1956 3394 2288 3394 
Q 2866 3394 3269 2941 
Q 3672 2488 3672 1678 
Q 3672 847 3265 386 
Q 2859 -75 2281 -75 
Q 2006 -75 1782 34 
Q 1559 144 1313 409 
L 1313 -1263 
L 434 -1263 
L 434 3319 
z
M 1303 1716 
Q 1303 1156 1525 889 
Q 1747 622 2066 622 
Q 2372 622 2575 867 
Q 2778 1113 2778 1672 
Q 2778 2194 2568 2447 
Q 2359 2700 2050 2700 
Q 1728 2700 1515 2451 
Q 1303 2203 1303 1716 
z
" transform="scale(0.015625)"/>
       <path id="Arial-BoldMT-6f" d="M 256 1706 
Q 256 2144 472 2553 
Q 688 2963 1083 3178 
Q 1478 3394 1966 3394 
Q 2719 3394 3200 2905 
Q 3681 2416 3681 1669 
Q 3681 916 3195 420 
Q 2709 -75 1972 -75 
Q 1516 -75 1102 131 
Q 688 338 472 736 
Q 256 1134 256 1706 
z
M 1156 1659 
Q 1156 1166 1390 903 
Q 1625 641 1969 641 
Q 2313 641 2545 903 
Q 2778 1166 2778 1666 
Q 2778 2153 2545 2415 
Q 2313 2678 1969 2678 
Q 1625 2678 1390 2415 
Q 1156 2153 1156 1659 
z
" transform="scale(0.015625)"/>
       <path id="Arial-BoldMT-64" d="M 3503 0 
L 2688 0 
L 2688 488 
Q 2484 203 2207 64 
Q 1931 -75 1650 -75 
Q 1078 -75 670 386 
Q 263 847 263 1672 
Q 263 2516 659 2955 
Q 1056 3394 1663 3394 
Q 2219 3394 2625 2931 
L 2625 4581 
L 3503 4581 
L 3503 0 
z
M 1159 1731 
Q 1159 1200 1306 963 
Q 1519 619 1900 619 
Q 2203 619 2415 876 
Q 2628 1134 2628 1647 
Q 2628 2219 2422 2470 
Q 2216 2722 1894 2722 
Q 1581 2722 1370 2473 
Q 1159 2225 1159 1731 
z
" transform="scale(0.015625)"/>
       <path id="Arial-BoldMT-42" d="M 469 4581 
L 2300 4581 
Q 2844 4581 3111 4536 
Q 3378 4491 3589 4347 
Q 3800 4203 3940 3964 
Q 4081 3725 4081 3428 
Q 4081 3106 3907 2837 
Q 3734 2569 3438 2434 
Q 3856 2313 4081 2019 
Q 4306 1725 4306 1328 
Q 4306 1016 4161 720 
Q 4016 425 3764 248 
Q 3513 72 3144 31 
Q 2913 6 2028 0 
L 469 0 
L 469 4581 
z
M 1394 3819 
L 1394 2759 
L 2000 2759 
Q 2541 2759 2672 2775 
Q 2909 2803 3045 2939 
Q 3181 3075 3181 3297 
Q 3181 3509 3064 3642 
Q 2947 3775 2716 3803 
Q 2578 3819 1925 3819 
L 1394 3819 
z
M 1394 1997 
L 1394 772 
L 2250 772 
Q 2750 772 2884 800 
Q 3091 838 3220 983 
Q 3350 1128 3350 1372 
Q 3350 1578 3250 1722 
Q 3150 1866 2961 1931 
Q 2772 1997 2141 1997 
L 1394 1997 
z
" transform="scale(0.015625)"/>
      </defs>
      <use xlink:href="#Arial-BoldMT-43"/>
      <use xlink:href="#Arial-BoldMT-68" x="72.216797"/>
      <use xlink:href="#Arial-BoldMT-61" x="133.300781"/>
      <use xlink:href="#Arial-BoldMT-6e" x="188.916016"/>
      <use xlink:href="#Arial-BoldMT-6e" x="250"/>
      <use xlink:href="#Arial-BoldMT-65" x="311.083984"/>
      <use xlink:href="#Arial-BoldMT-6c" x="366.699219"/>
      <use xlink:href="#Arial-BoldMT-20" x="394.482422"/>
      <use xlink:href="#Arial-BoldMT-52" x="422.265625"/>
      <use xlink:href="#Arial-BoldMT-65" x="494.482422"/>
      <use xlink:href="#Arial-BoldMT-73" x="550.097656"/>
      <use xlink:href="#Arial-BoldMT-70" x="605.712891"/>
      <use xlink:href="#Arial-BoldMT-6f" x="666.796875"/>
      <use xlink:href="#Arial-BoldMT-6e" x="727.880859"/>
      <use xlink:href="#Arial-BoldMT-73" x="788.964844"/>
      <use xlink:href="#Arial-BoldMT-65" x="844.580078"/>
      <use xlink:href="#Arial-BoldMT-20" x="900.195312"/>
      <use xlink:href="#Arial-BoldMT-28" x="927.978516"/>
      <use xlink:href="#Arial-BoldMT-64" x="961.279297"/>
      <use xlink:href="#Arial-BoldMT-42" x="1022.363281"/>
      <use xlink:href="#Arial-BoldMT-29" x="1094.580078"/>
     </g>
    </g>
   </g>
   <g id="line2d_35">
    <path d="M 73.832727 53.568 
L 78.751736 57.775302 
L 82.031074 60.351019 
L 91.869091 66.169548 
L 93.50876 67.238273 
L 96.788099 68.711201 
L 101.707107 71.650748 
L 104.986446 72.754667 
L 109.905455 75.138535 
L 111.545124 76.308784 
L 113.184793 77.243141 
L 114.824463 77.800673 
L 116.464132 78.120562 
L 118.103802 79.004523 
L 119.743471 80.157723 
L 121.38314 81.049738 
L 123.02281 81.407905 
L 124.662479 81.63887 
L 126.302149 82.223193 
L 131.221157 84.644239 
L 132.860826 85.796889 
L 134.500496 86.734413 
L 136.140165 87.020567 
L 137.779835 87.037589 
L 139.419504 87.632935 
L 141.059174 88.772927 
L 142.698843 89.688838 
L 145.978182 90.642333 
L 147.617851 91.140124 
L 149.257521 91.481077 
L 150.89719 92.452299 
L 152.53686 94.333348 
L 154.176529 96.467109 
L 155.816198 97.505301 
L 159.095537 96.252745 
L 160.735207 96.944326 
L 162.374876 98.471437 
L 164.014545 99.585078 
L 167.293884 100.707467 
L 168.933554 101.20275 
L 170.573223 101.415168 
L 172.212893 102.603163 
L 173.852562 105.880012 
L 175.492231 108.871064 
L 177.131901 109.151834 
L 178.77157 106.849316 
L 180.41124 106.052872 
L 182.050909 107.661501 
L 183.690579 109.449569 
L 185.330248 110.200863 
L 186.969917 110.211894 
L 188.609587 110.949693 
L 191.888926 112.861687 
L 193.528595 114.99122 
L 195.168264 120.314997 
L 196.807934 124.419272 
L 198.447603 123.431824 
L 200.087273 119.322047 
L 201.726942 117.228623 
L 203.366612 119.763913 
L 205.006281 122.900713 
L 206.64595 124.292547 
L 208.28562 123.752287 
L 209.925289 122.259745 
L 211.564959 121.237237 
L 213.204628 124.118644 
L 214.844298 131.032568 
L 216.483967 136.76635 
L 218.123636 136.95421 
L 219.763306 131.695447 
L 221.402975 128.504835 
L 223.042645 131.546953 
L 224.682314 135.509371 
L 226.321983 136.051567 
L 227.961653 133.663975 
L 229.601322 130.661378 
L 231.240992 128.965765 
L 232.880661 130.378845 
L 234.520331 136.067681 
L 236.16 143.538137 
L 237.799669 147.43099 
L 239.439339 145.342369 
L 241.079008 141.060129 
L 242.718678 142.120188 
L 244.358347 147.714726 
L 245.998017 150.33915 
L 247.637686 148.161199 
L 250.917025 139.053695 
L 252.556694 138.4742 
L 254.196364 141.133781 
L 255.836033 145.049757 
L 257.475702 148.367193 
L 259.115372 148.912667 
L 260.755041 146.699076 
L 262.394711 145.527158 
L 264.03438 148.289196 
L 265.67405 151.905711 
L 267.313719 153.369267 
L 268.953388 151.767265 
L 270.593058 148.45327 
L 272.232727 145.827603 
L 273.872397 146.109355 
L 275.512066 148.638548 
L 277.151736 151.501464 
L 278.791405 153.578174 
L 280.431074 153.383593 
L 282.070744 152.058298 
L 283.710413 152.725432 
L 285.350083 156.10868 
L 286.989752 159.141349 
L 288.629421 160.088646 
L 290.269091 159.09324 
L 291.90876 156.846831 
L 293.54843 155.425309 
L 295.188099 156.729399 
L 296.827769 159.049858 
L 298.467438 160.471431 
L 300.107107 160.734109 
L 301.746777 159.910869 
L 303.386446 158.808664 
L 305.026116 159.489552 
L 306.665785 162.793946 
L 308.305455 166.407927 
L 309.945124 168.022696 
L 311.584793 167.039151 
L 313.224463 165.481792 
L 314.864132 166.01946 
L 318.143471 170.66238 
L 319.78314 172.265421 
L 321.42281 172.897428 
L 323.062479 171.850726 
L 324.702149 170.231193 
L 326.341818 170.288473 
L 327.981488 172.967157 
L 329.621157 175.976229 
L 331.260826 177.162523 
L 332.900496 176.658864 
L 334.540165 176.42869 
L 336.179835 177.689463 
L 337.819504 180.142639 
L 341.098843 187.738084 
L 342.738512 188.998731 
L 346.017851 185.41244 
L 347.657521 187.473938 
L 349.29719 191.600143 
L 350.93686 193.501175 
L 352.576529 191.201179 
L 354.216198 187.454329 
L 355.855868 185.348589 
L 357.495537 186.72525 
L 360.774876 193.032367 
L 362.414545 194.472553 
L 364.054215 193.567703 
L 365.693884 192.141928 
L 367.333554 192.356641 
L 368.973223 194.833388 
L 370.612893 196.616902 
L 372.252562 196.467205 
L 373.892231 194.838971 
L 375.531901 192.328921 
L 377.17157 190.660251 
L 378.81124 191.041931 
L 380.450909 193.401146 
L 382.090579 196.394385 
L 383.730248 198.943566 
L 385.369917 199.787354 
L 387.009587 200.158318 
L 388.649256 202.324129 
L 390.288926 205.956666 
L 391.928595 209.060453 
L 393.568264 209.606802 
L 395.207934 208.102215 
L 396.847603 206.341906 
L 398.487273 205.476997 
L 398.487273 205.476997 
" clip-path="url(#pd86b0ce23b)" style="fill: none; stroke: #ff0000; stroke-width: 3; stroke-linecap: square"/>
   </g>
   <g id="line2d_36">
    <path d="M 73.832727 55.462951 
L 75.472397 57.115149 
L 78.751736 60.697161 
L 82.031074 63.749163 
L 83.670744 65.161589 
L 95.14843 73.67458 
L 96.788099 74.928512 
L 98.427769 75.636676 
L 100.067438 76.640016 
L 101.707107 78.005486 
L 104.986446 79.468668 
L 109.905455 82.592626 
L 111.545124 83.369194 
L 113.184793 84.703105 
L 114.824463 85.869042 
L 116.464132 86.307816 
L 119.743471 88.691041 
L 121.38314 89.163466 
L 123.02281 89.802868 
L 126.302149 91.511558 
L 129.581488 93.286625 
L 131.221157 94.227375 
L 132.860826 95.445736 
L 134.500496 96.092878 
L 136.140165 97.021951 
L 137.779835 98.425196 
L 141.059174 99.250768 
L 142.698843 100.355667 
L 144.338512 101.223795 
L 145.978182 101.717631 
L 147.617851 102.507829 
L 149.257521 103.877847 
L 150.89719 105.550889 
L 152.53686 106.013582 
L 154.176529 106.866243 
L 155.816198 109.192737 
L 157.455868 109.707976 
L 159.095537 109.580146 
L 160.735207 111.079381 
L 162.374876 112.245928 
L 164.014545 112.046001 
L 165.654215 112.360271 
L 167.293884 113.902722 
L 168.933554 115.84108 
L 172.212893 117.481662 
L 173.852562 121.227408 
L 175.492231 123.204749 
L 177.131901 121.739048 
L 178.77157 122.907541 
L 180.41124 125.146109 
L 182.050909 123.943542 
L 183.690579 123.336601 
L 185.330248 125.301891 
L 186.969917 126.515816 
L 190.249256 127.68008 
L 191.888926 130.207309 
L 193.528595 133.910837 
L 196.807934 134.335053 
L 198.447603 138.375658 
L 200.087273 138.344817 
L 201.726942 136.061118 
L 203.366612 138.839419 
L 205.006281 140.31543 
L 206.64595 138.252984 
L 208.28562 138.00541 
L 209.925289 141.977008 
L 211.564959 144.772379 
L 213.204628 144.099803 
L 214.844298 146.737971 
L 216.483967 152.911036 
L 218.123636 152.621481 
L 219.763306 150.321651 
L 221.402975 154.941809 
L 223.042645 155.547004 
L 224.682314 150.887676 
L 226.321983 150.305349 
L 227.961653 152.590981 
L 229.601322 152.251392 
L 231.240992 151.05961 
L 232.880661 153.82524 
L 234.520331 159.562285 
L 236.16 161.090747 
L 237.799669 160.882461 
L 239.439339 167.201382 
L 241.079008 170.580143 
L 242.718678 166.991458 
L 244.358347 167.094255 
L 245.998017 169.459637 
L 247.637686 166.66187 
L 249.277355 163.537755 
L 252.556694 164.893473 
L 254.196364 163.542502 
L 255.836033 163.504977 
L 257.475702 166.836799 
L 259.115372 169.61929 
L 260.755041 169.364441 
L 262.394711 171.160904 
L 264.03438 174.528583 
L 265.67405 173.90621 
L 267.313719 172.165811 
L 270.593058 173.589696 
L 272.232727 171.97802 
L 273.872397 171.548197 
L 275.512066 173.700242 
L 277.151736 175.373105 
L 278.791405 175.400851 
L 280.431074 176.606036 
L 282.070744 180.182006 
L 283.710413 181.308835 
L 285.350083 180.637359 
L 286.989752 181.905468 
L 288.629421 183.428188 
L 291.90876 182.817275 
L 293.54843 184.800426 
L 295.188099 185.638331 
L 296.827769 184.354865 
L 298.467438 184.724362 
L 300.107107 186.667438 
L 301.746777 187.611761 
L 303.386446 187.431873 
L 305.026116 188.928034 
L 306.665785 191.691232 
L 308.305455 192.255755 
L 309.945124 192.407483 
L 311.584793 194.936706 
L 313.224463 196.699472 
L 314.864132 196.339047 
L 316.503802 197.143621 
L 318.143471 198.808437 
L 319.78314 199.59497 
L 321.42281 199.461409 
L 323.062479 199.855335 
L 324.702149 201.884716 
L 326.341818 202.582702 
L 327.981488 201.906256 
L 329.621157 203.120901 
L 331.260826 205.341802 
L 332.900496 205.960259 
L 334.540165 206.827154 
L 337.819504 212.145575 
L 339.459174 213.542448 
L 341.098843 214.348322 
L 342.738512 217.301372 
L 344.378182 219.154344 
L 346.017851 218.007522 
L 347.657521 218.725509 
L 349.29719 220.542972 
L 350.93686 219.302308 
L 352.576529 217.584825 
L 354.216198 218.757683 
L 355.855868 219.75596 
L 357.495537 219.438193 
L 359.135207 219.851863 
L 360.774876 222.009576 
L 362.414545 223.433144 
L 364.054215 223.027922 
L 365.693884 224.083603 
L 367.333554 225.729289 
L 368.973223 225.320095 
L 370.612893 224.374113 
L 372.252562 225.103976 
L 373.892231 225.287788 
L 375.531901 223.932608 
L 377.17157 223.499791 
L 380.450909 225.855819 
L 382.090579 226.520043 
L 383.730248 228.645135 
L 385.369917 231.667564 
L 387.009587 233.457981 
L 388.649256 234.691441 
L 390.288926 237.006811 
L 391.928595 238.523987 
L 395.207934 237.462673 
L 396.847603 237.514859 
L 398.487273 237.335402 
L 398.487273 237.335402 
" clip-path="url(#pd86b0ce23b)" style="fill: none; stroke: #0000ff; stroke-width: 3; stroke-linecap: square"/>
   </g>
   <g id="line2d_37">
    <path d="M 73.832727 57.137704 
L 75.472397 58.756456 
L 78.751736 62.365634 
L 88.589752 72.818003 
L 90.229421 74.270398 
L 91.869091 76.072324 
L 93.50876 77.520561 
L 95.14843 79.443429 
L 96.788099 80.481925 
L 98.427769 82.403178 
L 100.067438 83.301342 
L 101.707107 85.022221 
L 104.986446 88.131172 
L 106.626116 89.369462 
L 108.265785 90.267011 
L 109.905455 91.911213 
L 111.545124 93.02924 
L 114.824463 95.759455 
L 118.103802 98.243851 
L 119.743471 99.73164 
L 121.38314 101.494248 
L 123.02281 102.335862 
L 124.662479 105.170221 
L 126.302149 104.989093 
L 127.941818 107.471045 
L 129.581488 107.946338 
L 131.221157 109.709606 
L 137.779835 115.009477 
L 139.419504 117.82305 
L 141.059174 117.22135 
L 142.698843 121.345667 
L 144.338512 120.605186 
L 145.978182 123.997029 
L 147.617851 123.428088 
L 149.257521 126.037444 
L 152.53686 126.708259 
L 154.176529 130.790258 
L 155.816198 128.243926 
L 157.455868 133.382943 
L 159.095537 132.968803 
L 164.014545 137.379629 
L 165.654215 137.436754 
L 167.293884 138.711438 
L 168.933554 138.771438 
L 170.573223 139.280612 
L 172.212893 140.822411 
L 173.852562 140.20897 
L 175.492231 142.621113 
L 177.131901 141.612688 
L 178.77157 143.451033 
L 180.41124 143.737952 
L 182.050909 144.437435 
L 183.690579 145.508098 
L 185.330248 146.15488 
L 186.969917 147.634389 
L 188.609587 147.905734 
L 190.249256 149.255722 
L 191.888926 149.867823 
L 198.447603 154.220649 
L 200.087273 155.476544 
L 203.366612 158.284779 
L 205.006281 159.45465 
L 206.64595 160.844503 
L 211.564959 165.483369 
L 213.204628 167.289927 
L 214.844298 169.732335 
L 216.483967 169.384945 
L 218.123636 173.318967 
L 219.763306 173.684376 
L 221.402975 174.480291 
L 223.042645 178.112669 
L 224.682314 176.558005 
L 226.321983 179.737265 
L 227.961653 180.818135 
L 229.601322 180.170042 
L 231.240992 185.067836 
L 232.880661 182.0315 
L 234.520331 186.673551 
L 236.16 184.341952 
L 237.799669 186.569116 
L 239.439339 187.687441 
L 241.079008 186.949289 
L 242.718678 189.833755 
L 244.358347 188.465352 
L 245.998017 191.684759 
L 247.637686 191.51719 
L 249.277355 191.988392 
L 250.917025 195.767381 
L 252.556694 194.581784 
L 254.196364 197.630029 
L 255.836033 200.293903 
L 257.475702 198.91681 
L 259.115372 203.119543 
L 260.755041 203.750948 
L 264.03438 204.623365 
L 265.67405 207.95977 
L 267.313719 207.317359 
L 268.953388 208.048733 
L 270.593058 212.252496 
L 272.232727 210.40028 
L 273.872397 212.708527 
L 275.512066 214.108529 
L 277.151736 215.739861 
L 278.791405 216.220265 
L 280.431074 218.47631 
L 282.070744 217.867131 
L 283.710413 221.227857 
L 285.350083 220.998797 
L 286.989752 222.503694 
L 288.629421 224.741159 
L 290.269091 225.042642 
L 291.90876 227.460066 
L 293.54843 227.039716 
L 295.188099 230.393676 
L 296.827769 228.88301 
L 298.467438 230.688696 
L 300.107107 232.785531 
L 301.746777 231.479691 
L 303.386446 235.356808 
L 305.026116 235.421616 
L 306.665785 237.733164 
L 308.305455 238.7331 
L 309.945124 241.067269 
L 311.584793 241.995979 
L 313.224463 244.521703 
L 314.864132 245.269885 
L 316.503802 246.940415 
L 318.143471 249.06638 
L 319.78314 250.441065 
L 321.42281 252.119838 
L 323.062479 253.194096 
L 324.702149 255.270192 
L 327.981488 257.875184 
L 332.900496 262.47497 
L 334.540165 264.825058 
L 336.179835 265.069277 
L 337.819504 267.608343 
L 339.459174 267.420134 
L 341.098843 268.940515 
L 342.738512 269.969926 
L 344.378182 269.726372 
L 346.017851 271.154234 
L 347.657521 269.947618 
L 349.29719 272.061431 
L 350.93686 270.968452 
L 352.576529 270.991232 
L 354.216198 273.144326 
L 355.855868 271.254426 
L 357.495537 275.304079 
L 359.135207 274.35438 
L 360.774876 276.708751 
L 362.414545 277.437065 
L 364.054215 278.361555 
L 365.693884 280.543165 
L 367.333554 281.295022 
L 368.973223 283.612789 
L 370.612893 283.258891 
L 372.252562 285.444714 
L 373.892231 285.684266 
L 375.531901 286.615666 
L 377.17157 286.872771 
L 378.81124 287.965516 
L 380.450909 288.777486 
L 382.090579 288.409814 
L 383.730248 289.748092 
L 385.369917 289.161465 
L 387.009587 291.559649 
L 388.649256 289.843762 
L 390.288926 291.792571 
L 391.928595 292.651185 
L 393.568264 291.658206 
L 395.207934 293.053293 
L 396.847603 295.488 
L 398.487273 292.677911 
L 398.487273 292.677911 
" clip-path="url(#pd86b0ce23b)" style="fill: none; stroke: #008000; stroke-width: 3; stroke-linecap: square"/>
   </g>
   <g id="patch_3">
    <path d="M 57.6 307.584 
L 57.6 41.472 
" style="fill: none; stroke: #000000; stroke-width: 0.8; stroke-linejoin: miter; stroke-linecap: square"/>
   </g>
   <g id="patch_4">
    <path d="M 414.72 307.584 
L 414.72 41.472 
" style="fill: none; stroke: #000000; stroke-width: 0.8; stroke-linejoin: miter; stroke-linecap: square"/>
   </g>
   <g id="patch_5">
    <path d="M 57.6 307.584 
L 414.72 307.584 
" style="fill: none; stroke: #000000; stroke-width: 0.8; stroke-linejoin: miter; stroke-linecap: square"/>
   </g>
   <g id="patch_6">
    <path d="M 57.6 41.472 
L 414.72 41.472 
" style="fill: none; stroke: #000000; stroke-width: 0.8; stroke-linejoin: miter; stroke-linecap: square"/>
   </g>
   <g id="legend_1">
    <g id="patch_7">
     <path d="M 68.8 299.584 
L 256.55 299.584 
Q 259.75 299.584 259.75 296.384 
L 259.75 229.749 
Q 259.75 226.549 256.55 226.549 
L 68.8 226.549 
Q 65.6 226.549 65.6 229.749 
L 65.6 296.384 
Q 65.6 299.584 68.8 299.584 
z
" style="fill: #ffffff; opacity: 0.8; stroke: #cccccc; stroke-linejoin: miter"/>
    </g>
    <g id="line2d_38">
     <path d="M 72 238.8015 
L 88 238.8015 
L 104 238.8015 
" style="fill: none; stroke: #ff0000; stroke-width: 3; stroke-linecap: square"/>
    </g>
    <g id="text_20">
     <!-- Nelco4000-13 12"  -->
     <g transform="translate(116.8 244.4015) scale(0.16 -0.16)">
      <defs>
       <path id="Arial-BoldMT-4e" d="M 475 0 
L 475 4581 
L 1375 4581 
L 3250 1522 
L 3250 4581 
L 4109 4581 
L 4109 0 
L 3181 0 
L 1334 2988 
L 1334 0 
L 475 0 
z
" transform="scale(0.015625)"/>
       <path id="Arial-BoldMT-2d" d="M 359 1222 
L 359 2100 
L 2084 2100 
L 2084 1222 
L 359 1222 
z
" transform="scale(0.015625)"/>
       <path id="Arial-BoldMT-22" d="M 516 2953 
L 350 3806 
L 350 4581 
L 1306 4581 
L 1306 3806 
L 1163 2953 
L 516 2953 
z
M 1925 2953 
L 1759 3806 
L 1759 4581 
L 2716 4581 
L 2716 3806 
L 2572 2953 
L 1925 2953 
z
" transform="scale(0.015625)"/>
      </defs>
      <use xlink:href="#Arial-BoldMT-4e"/>
      <use xlink:href="#Arial-BoldMT-65" x="72.216797"/>
      <use xlink:href="#Arial-BoldMT-6c" x="127.832031"/>
      <use xlink:href="#Arial-BoldMT-63" x="155.615234"/>
      <use xlink:href="#Arial-BoldMT-6f" x="211.230469"/>
      <use xlink:href="#Arial-BoldMT-34" x="272.314453"/>
      <use xlink:href="#Arial-BoldMT-30" x="327.929688"/>
      <use xlink:href="#Arial-BoldMT-30" x="383.544922"/>
      <use xlink:href="#Arial-BoldMT-30" x="439.160156"/>
      <use xlink:href="#Arial-BoldMT-2d" x="494.775391"/>
      <use xlink:href="#Arial-BoldMT-31" x="528.076172"/>
      <use xlink:href="#Arial-BoldMT-33" x="583.691406"/>
      <use xlink:href="#Arial-BoldMT-20" x="639.306641"/>
      <use xlink:href="#Arial-BoldMT-31" x="667.089844"/>
      <use xlink:href="#Arial-BoldMT-32" x="722.705078"/>
      <use xlink:href="#Arial-BoldMT-22" x="778.320312"/>
      <use xlink:href="#Arial-BoldMT-20" x="825.732422"/>
     </g>
    </g>
    <g id="line2d_39">
     <path d="M 72 261.4115 
L 88 261.4115 
L 104 261.4115 
" style="fill: none; stroke: #0000ff; stroke-width: 3; stroke-linecap: square"/>
    </g>
    <g id="text_21">
     <!-- Nelco4000-13 20"  -->
     <g transform="translate(116.8 267.0115) scale(0.16 -0.16)">
      <use xlink:href="#Arial-BoldMT-4e"/>
      <use xlink:href="#Arial-BoldMT-65" x="72.216797"/>
      <use xlink:href="#Arial-BoldMT-6c" x="127.832031"/>
      <use xlink:href="#Arial-BoldMT-63" x="155.615234"/>
      <use xlink:href="#Arial-BoldMT-6f" x="211.230469"/>
      <use xlink:href="#Arial-BoldMT-34" x="272.314453"/>
      <use xlink:href="#Arial-BoldMT-30" x="327.929688"/>
      <use xlink:href="#Arial-BoldMT-30" x="383.544922"/>
      <use xlink:href="#Arial-BoldMT-30" x="439.160156"/>
      <use xlink:href="#Arial-BoldMT-2d" x="494.775391"/>
      <use xlink:href="#Arial-BoldMT-31" x="528.076172"/>
      <use xlink:href="#Arial-BoldMT-33" x="583.691406"/>
      <use xlink:href="#Arial-BoldMT-20" x="639.306641"/>
      <use xlink:href="#Arial-BoldMT-32" x="667.089844"/>
      <use xlink:href="#Arial-BoldMT-30" x="722.705078"/>
      <use xlink:href="#Arial-BoldMT-22" x="778.320312"/>
      <use xlink:href="#Arial-BoldMT-20" x="825.732422"/>
     </g>
    </g>
    <g id="line2d_40">
     <path d="M 72 284.2165 
L 88 284.2165 
L 104 284.2165 
" style="fill: none; stroke: #008000; stroke-width: 3; stroke-linecap: square"/>
    </g>
    <g id="text_22">
     <!-- FR408 1m (39.3") -->
     <g transform="translate(116.8 289.8165) scale(0.16 -0.16)">
      <defs>
       <path id="Arial-BoldMT-6d" d="M 394 3319 
L 1203 3319 
L 1203 2866 
Q 1638 3394 2238 3394 
Q 2556 3394 2790 3262 
Q 3025 3131 3175 2866 
Q 3394 3131 3647 3262 
Q 3900 3394 4188 3394 
Q 4553 3394 4806 3245 
Q 5059 3097 5184 2809 
Q 5275 2597 5275 2122 
L 5275 0 
L 4397 0 
L 4397 1897 
Q 4397 2391 4306 2534 
Q 4184 2722 3931 2722 
Q 3747 2722 3584 2609 
Q 3422 2497 3350 2280 
Q 3278 2063 3278 1594 
L 3278 0 
L 2400 0 
L 2400 1819 
Q 2400 2303 2353 2443 
Q 2306 2584 2207 2653 
Q 2109 2722 1941 2722 
Q 1738 2722 1575 2612 
Q 1413 2503 1342 2297 
Q 1272 2091 1272 1613 
L 1272 0 
L 394 0 
L 394 3319 
z
" transform="scale(0.015625)"/>
       <path id="Arial-BoldMT-39" d="M 291 1059 
L 1141 1153 
Q 1172 894 1303 769 
Q 1434 644 1650 644 
Q 1922 644 2112 894 
Q 2303 1144 2356 1931 
Q 2025 1547 1528 1547 
Q 988 1547 595 1964 
Q 203 2381 203 3050 
Q 203 3747 617 4173 
Q 1031 4600 1672 4600 
Q 2369 4600 2816 4061 
Q 3263 3522 3263 2288 
Q 3263 1031 2797 475 
Q 2331 -81 1584 -81 
Q 1047 -81 715 205 
Q 384 491 291 1059 
z
M 2278 2978 
Q 2278 3403 2083 3637 
Q 1888 3872 1631 3872 
Q 1388 3872 1227 3680 
Q 1066 3488 1066 3050 
Q 1066 2606 1241 2398 
Q 1416 2191 1678 2191 
Q 1931 2191 2104 2391 
Q 2278 2591 2278 2978 
z
" transform="scale(0.015625)"/>
       <path id="Arial-BoldMT-2e" d="M 459 0 
L 459 878 
L 1338 878 
L 1338 0 
L 459 0 
z
" transform="scale(0.015625)"/>
      </defs>
      <use xlink:href="#Arial-BoldMT-46"/>
      <use xlink:href="#Arial-BoldMT-52" x="61.083984"/>
      <use xlink:href="#Arial-BoldMT-34" x="133.300781"/>
      <use xlink:href="#Arial-BoldMT-30" x="188.916016"/>
      <use xlink:href="#Arial-BoldMT-38" x="244.53125"/>
      <use xlink:href="#Arial-BoldMT-20" x="300.146484"/>
      <use xlink:href="#Arial-BoldMT-31" x="327.929688"/>
      <use xlink:href="#Arial-BoldMT-6d" x="383.544922"/>
      <use xlink:href="#Arial-BoldMT-20" x="472.460938"/>
      <use xlink:href="#Arial-BoldMT-28" x="500.244141"/>
      <use xlink:href="#Arial-BoldMT-33" x="533.544922"/>
      <use xlink:href="#Arial-BoldMT-39" x="589.160156"/>
      <use xlink:href="#Arial-BoldMT-2e" x="644.775391"/>
      <use xlink:href="#Arial-BoldMT-33" x="672.558594"/>
      <use xlink:href="#Arial-BoldMT-22" x="728.173828"/>
      <use xlink:href="#Arial-BoldMT-29" x="775.585938"/>
     </g>
    </g>
   </g>
  </g>
 </g>
 <defs>
  <clipPath id="pd86b0ce23b">
   <rect x="57.6" y="41.472" width="357.12" height="266.112"/>
  </clipPath>
 </defs>
</svg>
